<svg width="15" height="12" viewBox="0 0 15 12" fill="none" xmlns="http://www.w3.org/2000/svg">
<path d="M14.6069 5.8341C14.0331 4.3498 13.0369 3.06617 11.7415 2.14187C10.4461 1.21756 8.90822 0.693102 7.31799 0.633301C5.72775 0.693102 4.18989 1.21756 2.89448 2.14187C1.59907 3.06617 0.60289 4.3498 0.0290652 5.8341C-0.00968841 5.94129 -0.00968841 6.05867 0.0290652 6.16586C0.60289 7.65016 1.59907 8.93379 2.89448 9.85809C4.18989 10.7824 5.72775 11.3069 7.31799 11.3667C8.90822 11.3069 10.4461 10.7824 11.7415 9.85809C13.0369 8.93379 14.0331 7.65016 14.6069 6.16586C14.6457 6.05867 14.6457 5.94129 14.6069 5.8341ZM7.31799 10.3909C4.73223 10.3909 2.0001 8.47353 1.0097 5.99998C2.0001 3.52643 4.73223 1.60906 7.31799 1.60906C9.90375 1.60906 12.6359 3.52643 13.6263 5.99998C12.6359 8.47353 9.90375 10.3909 7.31799 10.3909Z" fill="#11A604"/>
<path d="M7.3179 3.07263C6.73894 3.07263 6.17298 3.24431 5.6916 3.56597C5.21021 3.88762 4.83501 4.3448 4.61345 4.87969C4.39189 5.41458 4.33392 6.00316 4.44687 6.57099C4.55982 7.13883 4.83862 7.66042 5.24801 8.06981C5.65739 8.4792 6.17898 8.75799 6.74682 8.87094C7.31466 8.98389 7.90324 8.92592 8.43813 8.70436C8.97302 8.4828 9.43019 8.10761 9.75185 7.62622C10.0735 7.14483 10.2452 6.57887 10.2452 5.99991C10.2452 5.22355 9.93677 4.47898 9.3878 3.93001C8.83883 3.38104 8.09427 3.07263 7.3179 3.07263ZM7.3179 7.95143C6.93193 7.95143 6.55462 7.83697 6.2337 7.62254C5.91277 7.4081 5.66264 7.10332 5.51494 6.74672C5.36723 6.39013 5.32858 5.99775 5.40388 5.61919C5.47918 5.24063 5.66505 4.8929 5.93797 4.61998C6.2109 4.34705 6.55862 4.16119 6.93718 4.08589C7.31574 4.01059 7.70812 4.04924 8.06472 4.19694C8.42131 4.34465 8.7261 4.59478 8.94053 4.9157C9.15497 5.23663 9.26942 5.61394 9.26942 5.99991C9.26942 6.51749 9.06382 7.01386 8.69784 7.37984C8.33186 7.74582 7.83548 7.95143 7.3179 7.95143Z" fill="#11A604"/>
</svg>
