<svg width="19" height="19" viewBox="0 0 19 19" fill="none" xmlns="http://www.w3.org/2000/svg">
<path d="M12.6739 4.48458L14.2624 6.07233L12.6739 4.48458ZM13.6954 3.08583L9.40011 7.38108C9.17818 7.60271 9.02682 7.88507 8.96511 8.19258L8.56836 10.1786L10.5544 9.78108C10.8619 9.71958 11.1439 9.56883 11.3659 9.34683L15.6611 5.05158C15.7902 4.92251 15.8926 4.76928 15.9624 4.60063C16.0323 4.43199 16.0682 4.25124 16.0682 4.06871C16.0682 3.88617 16.0323 3.70542 15.9624 3.53678C15.8926 3.36814 15.7902 3.2149 15.6611 3.08583C15.532 2.95676 15.3788 2.85437 15.2102 2.78452C15.0415 2.71466 14.8608 2.67871 14.6782 2.67871C14.4957 2.67871 14.3149 2.71466 14.1463 2.78452C13.9777 2.85437 13.8244 2.95676 13.6954 3.08583V3.08583Z" stroke="black" stroke-opacity="0.3" stroke-linecap="round" stroke-linejoin="round"/>
<path d="M14.5684 11.6787V13.9287C14.5684 14.3265 14.4103 14.7081 14.129 14.9894C13.8477 15.2707 13.4662 15.4287 13.0684 15.4287H4.81836C4.42053 15.4287 4.039 15.2707 3.7577 14.9894C3.47639 14.7081 3.31836 14.3265 3.31836 13.9287V5.67871C3.31836 5.28089 3.47639 4.89936 3.7577 4.61805C4.039 4.33675 4.42053 4.17871 4.81836 4.17871H7.06836" stroke="black" stroke-opacity="0.3" stroke-linecap="round" stroke-linejoin="round"/>
</svg>
