<svg width="16" height="17" viewBox="0 0 16 17" fill="none" xmlns="http://www.w3.org/2000/svg">
<path d="M9.06061 8.50032L12.0294 5.53157C12.1703 5.39093 12.2495 5.20007 12.2497 5.00099C12.2499 4.80191 12.1709 4.61091 12.0303 4.47001C11.8897 4.32912 11.6988 4.24986 11.4997 4.24969C11.3006 4.24951 11.1096 4.32843 10.9687 4.46907L7.99999 7.43782L5.03124 4.46907C4.89034 4.32818 4.69925 4.24902 4.49999 4.24902C4.30073 4.24902 4.10964 4.32818 3.96874 4.46907C3.82784 4.60997 3.74869 4.80107 3.74869 5.00032C3.74869 5.19958 3.82784 5.39068 3.96874 5.53157L6.93749 8.50032L3.96874 11.4691C3.82784 11.61 3.74869 11.8011 3.74869 12.0003C3.74869 12.1996 3.82784 12.3907 3.96874 12.5316C4.10964 12.6725 4.30073 12.7516 4.49999 12.7516C4.69925 12.7516 4.89034 12.6725 5.03124 12.5316L7.99999 9.56282L10.9687 12.5316C11.1096 12.6725 11.3007 12.7516 11.5 12.7516C11.6992 12.7516 11.8903 12.6725 12.0312 12.5316C12.1721 12.3907 12.2513 12.1996 12.2513 12.0003C12.2513 11.8011 12.1721 11.61 12.0312 11.4691L9.06061 8.50032Z" fill="black" fill-opacity="0.6"/>
</svg>
