<svg width="26" height="26" viewBox="0 0 26 26" fill="none" xmlns="http://www.w3.org/2000/svg">
<g clip-path="url(#clip0_205_649)">
<path d="M6.93288 12.9997L12.1329 17.1663L19.0662 8.83301M12.9995 24.6663C11.4062 24.6663 9.8284 24.3646 8.35632 23.7783C6.88423 23.192 5.54667 22.3326 4.41998 21.2492C3.2933 20.1659 2.39956 18.8798 1.78981 17.4643C1.18005 16.0488 0.866211 14.5318 0.866211 12.9997C0.866211 11.4676 1.18005 9.9505 1.78981 8.53503C2.39956 7.11957 3.2933 5.83344 4.41998 4.75009C5.54667 3.66674 6.88423 2.80738 8.35632 2.22108C9.8284 1.63477 11.4062 1.33301 12.9995 1.33301C16.2175 1.33301 19.3037 2.56217 21.5791 4.7501C23.8545 6.93802 25.1329 9.90548 25.1329 12.9997C25.1329 16.0939 23.8545 19.0613 21.5791 21.2492C19.3037 23.4372 16.2175 24.6663 12.9995 24.6663Z" stroke="#11A604"/>
</g>
<defs>
<clipPath id="clip0_205_649">
<rect width="26" height="25" fill="white" transform="translate(0 0.5)"/>
</clipPath>
</defs>
</svg>
