<svg width="26" height="26" viewBox="0 0 23 28" fill="none" xmlns="http://www.w3.org/2000/svg">
<path d="M13.4688 6.125V11.375H16.75L13.4688 6.125ZM15.0241 0.875H8.875C8.17881 0.875 7.51113 1.15156 7.01885 1.64384C6.52656 2.13613 6.25 2.80381 6.25 3.5V19.25C6.25 19.9462 6.52656 20.6139 7.01885 21.1062C7.51113 21.5984 8.17881 21.875 8.875 21.875H19.375C20.0712 21.875 20.7389 21.5984 21.2312 21.1062C21.7234 20.6139 22 19.9462 22 19.25V7.75513C22 7.40542 21.93 7.05925 21.7944 6.73695C21.6587 6.41464 21.46 6.12269 21.2099 5.87825L16.8589 1.62312C16.3685 1.14361 15.7099 0.875085 15.0241 0.875V0.875Z" stroke="black" stroke-opacity="0.6" stroke-linecap="round" stroke-linejoin="round"/>
<path d="M16.75 21.875V24.5C16.75 25.1962 16.4734 25.8639 15.9812 26.3562C15.4889 26.8484 14.8212 27.125 14.125 27.125H3.625C2.92881 27.125 2.26113 26.8484 1.76884 26.3562C1.27656 25.8639 1 25.1962 1 24.5V10.0625C1 9.36631 1.27656 8.69863 1.76884 8.20634C2.26113 7.71406 2.92881 7.4375 3.625 7.4375H6.25" stroke="black" stroke-opacity="0.6" stroke-linecap="round" stroke-linejoin="round"/>
</svg>
