<svg width="19" height="18" viewBox="0 0 19 18" fill="none" xmlns="http://www.w3.org/2000/svg">
<path d="M12.6739 4.05599L14.2624 5.64374L12.6739 4.05599ZM13.6954 2.65724L9.40011 6.95249C9.17818 7.17412 9.02682 7.45648 8.96511 7.76399L8.56836 9.74999L10.5544 9.35249C10.8619 9.29099 11.1439 9.14024 11.3659 8.91824L15.6611 4.62299C15.7902 4.49392 15.8926 4.34069 15.9624 4.17205C16.0323 4.0034 16.0682 3.82265 16.0682 3.64012C16.0682 3.45758 16.0323 3.27683 15.9624 3.10819C15.8926 2.93955 15.7902 2.78632 15.6611 2.65724C15.532 2.52817 15.3788 2.42578 15.2102 2.35593C15.0415 2.28608 14.8608 2.25012 14.6782 2.25012C14.4957 2.25012 14.3149 2.28608 14.1463 2.35593C13.9777 2.42578 13.8244 2.52817 13.6954 2.65724V2.65724Z" stroke="#337AB7" stroke-linecap="round" stroke-linejoin="round"/>
<path d="M14.5684 11.25V13.5C14.5684 13.8978 14.4103 14.2794 14.129 14.5607C13.8477 14.842 13.4662 15 13.0684 15H4.81836C4.42053 15 4.039 14.842 3.7577 14.5607C3.47639 14.2794 3.31836 13.8978 3.31836 13.5V5.25C3.31836 4.85218 3.47639 4.47064 3.7577 4.18934C4.039 3.90804 4.42053 3.75 4.81836 3.75H7.06836" stroke="#337AB7" stroke-linecap="round" stroke-linejoin="round"/>
</svg>
