<svg width="27" height="28" viewBox="0 0 27 28" fill="none" xmlns="http://www.w3.org/2000/svg">
<path d="M2.53125 24.9688V8.09375H0.84375V25.3906C0.844127 25.7262 0.97759 26.0479 1.21486 26.2851C1.45213 26.5224 1.77383 26.6559 2.10938 26.6562H19.4062V24.9688H2.53125Z" fill="#337AB7"/>
<path d="M7.59375 21.5938H5.90625V4.71875H4.21875V22.0156C4.21913 22.3512 4.35259 22.6729 4.58986 22.9101C4.82713 23.1474 5.14883 23.2809 5.48438 23.2812H22.7812V21.5938H7.59375Z" fill="#337AB7"/>
<path d="M24.8906 1.34375H8.85938C8.52383 1.34413 8.20213 1.47759 7.96486 1.71486C7.72759 1.95213 7.59413 2.27383 7.59375 2.60938V18.6406C7.59413 18.9762 7.72759 19.2979 7.96486 19.5351C8.20213 19.7724 8.52383 19.9059 8.85938 19.9062H24.8906C25.2262 19.9059 25.5479 19.7724 25.7851 19.5351C26.0224 19.2979 26.1559 18.9762 26.1562 18.6406V2.60938C26.1559 2.27383 26.0224 1.95213 25.7851 1.71486C25.5479 1.47759 25.2262 1.34413 24.8906 1.34375ZM24.4688 18.2188H9.28125V3.03125H24.4688V18.2188Z" fill="#337AB7"/>
<path d="M16.0312 15.6875H17.7188V11.2578H22.1484V9.57031H17.7188V5.14062H16.0312V9.57031H11.6016V11.2578H16.0312V15.6875Z" fill="#337AB7"/>
</svg>
