<svg width="12" height="16" viewBox="0 0 12 16" fill="none" xmlns="http://www.w3.org/2000/svg">
<path d="M6.00007 0.5C6.57607 0.499946 7.13016 0.732423 7.5482 1.14954C7.96623 1.56666 8.21637 2.13665 8.2471 2.74211L8.25009 2.86842H11.5501C11.6641 2.86846 11.7739 2.91405 11.8572 2.99598C11.9405 3.07792 11.9912 3.19008 11.999 3.30982C12.0067 3.42955 11.971 3.54793 11.8991 3.64103C11.8271 3.73413 11.7243 3.79501 11.6113 3.81137L11.5501 3.81579H10.9147L10.1827 13.3229C10.137 13.916 9.88094 14.4693 9.46537 14.8727C9.04979 15.2761 8.50519 15.5 7.93989 15.5H4.06025C3.49495 15.5 2.95035 15.2761 2.53477 14.8727C2.11919 14.4693 1.8631 13.916 1.81742 13.3229L1.08481 3.81579H0.450005C0.341261 3.81578 0.236198 3.77433 0.154244 3.69909C0.0722894 3.62386 0.0189892 3.51993 0.00420003 3.40653L0 3.34211C4.58579e-06 3.22764 0.0393862 3.11705 0.110862 3.03078C0.182337 2.94451 0.281071 2.88841 0.388804 2.87284L0.450005 2.86842H3.75004C3.75004 2.24028 3.9871 1.63786 4.40906 1.19369C4.83102 0.749529 5.40332 0.5 6.00007 0.5ZM10.0123 3.81579H1.98782L2.71443 13.2465C2.74187 13.6024 2.89555 13.9343 3.14492 14.1763C3.39429 14.4184 3.72107 14.5527 4.06025 14.5526H7.93989C8.27907 14.5527 8.60585 14.4184 8.85522 14.1763C9.10458 13.9343 9.25827 13.6024 9.28571 13.2465L10.0117 3.81579H10.0123ZM4.65005 6.18421C4.7588 6.18422 4.86386 6.22567 4.94582 6.30091C5.02777 6.37614 5.08107 6.48007 5.09586 6.59347L5.10006 6.65789V11.7105C5.10002 11.8305 5.05671 11.9461 4.97887 12.0338C4.90104 12.1215 4.79448 12.1748 4.68073 12.183C4.56698 12.1911 4.45452 12.1536 4.36607 12.0778C4.27763 12.0021 4.21979 11.8938 4.20425 11.7749L4.20005 11.7105V6.65789C4.20005 6.53227 4.24746 6.41178 4.33185 6.32295C4.41624 6.23412 4.5307 6.18421 4.65005 6.18421ZM7.35008 6.18421C7.45883 6.18422 7.56389 6.22567 7.64585 6.30091C7.7278 6.37614 7.7811 6.48007 7.79589 6.59347L7.80009 6.65789V11.7105C7.80005 11.8305 7.75674 11.9461 7.6789 12.0338C7.60107 12.1215 7.49451 12.1748 7.38076 12.183C7.26701 12.1911 7.15455 12.1536 7.0661 12.0778C6.97766 12.0021 6.91982 11.8938 6.90428 11.7749L6.90008 11.7105V6.65789C6.90008 6.53227 6.94749 6.41178 7.03188 6.32295C7.11628 6.23412 7.23074 6.18421 7.35008 6.18421ZM6.00007 1.44737C5.65799 1.44732 5.32865 1.58398 5.07861 1.82971C4.82856 2.07544 4.67647 2.41192 4.65305 2.77116L4.65005 2.86842H7.35008L7.34708 2.77116C7.32367 2.41192 7.17157 2.07544 6.92153 1.82971C6.67149 1.58398 6.34215 1.44732 6.00007 1.44737Z" fill="#D90E0E"/>
</svg>
